<svg id="Layer_1" data-name="Layer 1" xmlns="http://www.w3.org/2000/svg" viewBox="0 0 148.02 205.06"><defs><style>.cls-1{fill:#231f20;}.cls-2{fill:#fff;}</style></defs><path class="cls-1" d="M172.12,126.18c16.62,6.09,31.89,22.25,31.89,47.38,0,34.72-26.7,59-64.93,59H56V27.47h77.13c38.67,0,64.65,22.44,64.65,55.85C197.77,101.83,187.46,118.68,172.12,126.18Zm28,47.38c0-25.7-17.21-41.23-34.27-45.23l-6.7-1.57,6.54-2.14c16.6-5.44,28.19-22.42,28.19-41.3,0-31.58-23.86-52-60.79-52H59.85V228.67h79.23C175,228.67,200.15,206,200.15,173.56Z" transform="translate(-55.99 -27.47)"/><path class="cls-2" d="M165.88,128.33c17.06,4,34.27,19.53,34.27,45.23,0,32.45-25.11,55.11-61.07,55.11H59.85V31.33h73.27c36.93,0,60.79,20.41,60.79,52,0,18.88-11.59,35.86-28.19,41.3l-6.54,2.14Zm-12.1-40.19c0-14.71-10.58-23.5-28.32-23.5H99.69v47.28H126C142.89,111.92,153.78,102.59,153.78,88.14ZM129.72,195.92c39.63,1.73,39.39-52.51,0-51h-30v51Z" transform="translate(-55.99 -27.47)"/><path class="cls-1" d="M125.46,64.64c17.74,0,28.32,8.79,28.32,23.5,0,14.45-10.89,23.78-27.75,23.78H99.69V64.64Zm24.46,23.5c0-12.66-8.68-19.63-24.46-19.63H103.55v39.55H126C140.77,108.06,149.92,100.43,149.92,88.14Z" transform="translate(-55.99 -27.47)"/><path class="cls-1" d="M129.72,145c39.39-1.54,39.63,52.7,0,51h-30V145Zm-26.17,47.11c18.55-.19,52.9,4.67,52.05-21.62.7-26.12-33.58-21.51-52-21.62Z" transform="translate(-55.99 -27.47)"/></svg>